<svg xmlns="http://www.w3.org/2000/svg" xmlns:xlink="http://www.w3.org/1999/xlink" width="500" zoomAndPan="magnify" viewBox="0 0 375 374.999991" height="500" preserveAspectRatio="xMidYMid meet" version="1.2"><defs><clipPath id="1dab72ab1c"><path d="M 11.636719 102 L 161.636719 102 L 161.636719 223.21875 L 11.636719 223.21875 Z M 11.636719 102 "/></clipPath><clipPath id="77c9b55bfa"><path d="M 74 81.46875 L 105 81.46875 L 105 127 L 74 127 Z M 74 81.46875 "/></clipPath></defs><g id="aa78085888"><rect x="0" width="375" y="0" height="374.999991" style="fill:#ffffff;fill-opacity:1;stroke:none;"/><rect x="0" width="375" y="0" height="374.999991" style="fill:#ffffff;fill-opacity:1;stroke:none;"/><g clip-rule="nonzero" clip-path="url(#1dab72ab1c)"><path style=" stroke:none;fill-rule:evenodd;fill:#000000;fill-opacity:1;" d="M 39.550781 161.636719 L 39.550781 175.691406 C 39.550781 180.328125 41.386719 184.773438 44.65625 188.050781 C 47.925781 191.328125 52.359375 193.167969 56.980469 193.167969 L 57.140625 193.167969 C 61.761719 193.167969 66.195312 191.328125 69.464844 188.050781 C 72.734375 184.773438 74.570312 180.328125 74.570312 175.691406 L 74.570312 147.507812 L 119.246094 102.714844 L 161.628906 102.714844 L 111.765625 152.710938 L 161.003906 223.21875 L 124.417969 223.21875 L 101.964844 191.070312 C 99.640625 197.859375 95.792969 204.101562 90.632812 209.273438 C 81.730469 218.203125 69.652344 223.21875 57.0625 223.21875 C 35.691406 223.21875 17.621094 209.0625 11.664062 189.597656 Z M 39.550781 161.636719 "/></g><g clip-rule="nonzero" clip-path="url(#77c9b55bfa)"><path style=" stroke:none;fill-rule:evenodd;fill:#000000;fill-opacity:1;" d="M 104.539062 96.472656 L 74.570312 126.523438 L 74.570312 81.46875 L 104.539062 81.46875 Z M 104.539062 96.472656 "/></g><g style="fill:#d35400;fill-opacity:1;"><g transform="translate(139.171066, 173.592236)"><path style="stroke:none" d="M 1.515625 -34.359375 L 12.078125 -34.359375 C 13.753906 -34.359375 15.050781 -33.976562 15.96875 -33.21875 C 16.894531 -32.457031 17.515625 -31.390625 17.828125 -30.015625 C 18.148438 -28.640625 18.3125 -26.890625 18.3125 -24.765625 C 18.3125 -22.816406 18.054688 -21.296875 17.546875 -20.203125 C 17.046875 -19.109375 16.171875 -18.347656 14.921875 -17.921875 C 15.960938 -17.703125 16.710938 -17.179688 17.171875 -16.359375 C 17.640625 -15.535156 17.875 -14.414062 17.875 -13 L 17.796875 0 L 11.078125 0 L 11.078125 -13.4375 C 11.078125 -14.394531 10.890625 -15.007812 10.515625 -15.28125 C 10.140625 -15.550781 9.460938 -15.6875 8.484375 -15.6875 L 8.484375 0 L 1.515625 0 Z M 10.15625 -21.640625 C 11.113281 -21.640625 11.59375 -22.679688 11.59375 -24.765625 C 11.59375 -25.671875 11.550781 -26.347656 11.46875 -26.796875 C 11.394531 -27.253906 11.25 -27.566406 11.03125 -27.734375 C 10.820312 -27.910156 10.519531 -28 10.125 -28 L 8.515625 -28 L 8.515625 -21.640625 Z M 10.15625 -21.640625 "/></g></g><g style="fill:#d35400;fill-opacity:1;"><g transform="translate(158.249166, 173.592236)"><path style="stroke:none" d="M 1.515625 0 L 1.515625 -34.359375 L 15.28125 -34.359375 L 15.28125 -27.71875 L 8.515625 -27.71875 L 8.515625 -21.046875 L 15 -21.046875 L 15 -14.5625 L 8.515625 -14.5625 L 8.515625 -6.6875 L 15.71875 -6.6875 L 15.71875 0 Z M 1.515625 0 "/></g></g><g style="fill:#d35400;fill-opacity:1;"><g transform="translate(174.727525, 173.592236)"><path style="stroke:none" d="M 1.515625 0 L 1.515625 -34.359375 L 15.28125 -34.359375 L 15.28125 -27.6875 L 8.4375 -27.6875 L 8.4375 -22.203125 L 14.921875 -22.203125 L 14.921875 -15.59375 L 8.4375 -15.59375 L 8.4375 0 Z M 1.515625 0 "/></g></g><g style="fill:#d35400;fill-opacity:1;"><g transform="translate(190.685943, 173.592236)"><path style="stroke:none" d="M 1.515625 -34.359375 L 12.078125 -34.359375 C 13.753906 -34.359375 15.050781 -33.976562 15.96875 -33.21875 C 16.894531 -32.457031 17.515625 -31.390625 17.828125 -30.015625 C 18.148438 -28.640625 18.3125 -26.890625 18.3125 -24.765625 C 18.3125 -22.816406 18.054688 -21.296875 17.546875 -20.203125 C 17.046875 -19.109375 16.171875 -18.347656 14.921875 -17.921875 C 15.960938 -17.703125 16.710938 -17.179688 17.171875 -16.359375 C 17.640625 -15.535156 17.875 -14.414062 17.875 -13 L 17.796875 0 L 11.078125 0 L 11.078125 -13.4375 C 11.078125 -14.394531 10.890625 -15.007812 10.515625 -15.28125 C 10.140625 -15.550781 9.460938 -15.6875 8.484375 -15.6875 L 8.484375 0 L 1.515625 0 Z M 10.15625 -21.640625 C 11.113281 -21.640625 11.59375 -22.679688 11.59375 -24.765625 C 11.59375 -25.671875 11.550781 -26.347656 11.46875 -26.796875 C 11.394531 -27.253906 11.25 -27.566406 11.03125 -27.734375 C 10.820312 -27.910156 10.519531 -28 10.125 -28 L 8.515625 -28 L 8.515625 -21.640625 Z M 10.15625 -21.640625 "/></g></g><g style="fill:#d35400;fill-opacity:1;"><g transform="translate(209.764044, 173.592236)"><path style="stroke:none" d="M 0.59375 0 L 3.921875 -34.359375 L 15.5625 -34.359375 L 18.84375 0 L 12.3125 0 L 11.84375 -5.5625 L 7.6875 -5.5625 L 7.28125 0 Z M 8.203125 -11.046875 L 11.3125 -11.046875 L 9.796875 -28.515625 L 9.484375 -28.515625 Z M 8.203125 -11.046875 "/></g></g><g style="fill:#d35400;fill-opacity:1;"><g transform="translate(229.162121, 173.592236)"><path style="stroke:none" d="M 9.515625 0.3125 C 7.015625 0.3125 5.007812 -0.472656 3.5 -2.046875 C 1.988281 -3.617188 1.234375 -5.773438 1.234375 -8.515625 L 1.234375 -24.359375 C 1.234375 -27.773438 1.910156 -30.347656 3.265625 -32.078125 C 4.628906 -33.816406 6.769531 -34.6875 9.6875 -34.6875 C 12.21875 -34.6875 14.253906 -33.988281 15.796875 -32.59375 C 17.347656 -31.207031 18.125 -29.207031 18.125 -26.59375 L 18.125 -20.6875 L 11.28125 -20.6875 L 11.28125 -25.765625 C 11.28125 -26.742188 11.160156 -27.421875 10.921875 -27.796875 C 10.679688 -28.171875 10.269531 -28.359375 9.6875 -28.359375 C 9.070312 -28.359375 8.648438 -28.144531 8.421875 -27.71875 C 8.191406 -27.289062 8.078125 -26.664062 8.078125 -25.84375 L 8.078125 -8.59375 C 8.078125 -7.6875 8.207031 -7.023438 8.46875 -6.609375 C 8.738281 -6.203125 9.144531 -6 9.6875 -6 C 10.75 -6 11.28125 -6.863281 11.28125 -8.59375 L 11.28125 -14.796875 L 18.203125 -14.796875 L 18.203125 -8.3125 C 18.203125 -2.5625 15.304688 0.3125 9.515625 0.3125 Z M 9.515625 0.3125 "/></g></g><g style="fill:#d35400;fill-opacity:1;"><g transform="translate(248.120242, 173.592236)"><path style="stroke:none" d="M 4.484375 0 L 4.484375 -27.765625 L 0.40625 -27.765625 L 0.40625 -34.359375 L 15.4375 -34.359375 L 15.4375 -27.765625 L 11.359375 -27.765625 L 11.359375 0 Z M 4.484375 0 "/></g></g><g style="fill:#d35400;fill-opacity:1;"><g transform="translate(263.95867, 173.592236)"><path style="stroke:none" d="M 9.71875 0.3125 C 6.945312 0.3125 4.835938 -0.53125 3.390625 -2.21875 C 1.953125 -3.914062 1.234375 -6.296875 1.234375 -9.359375 L 1.234375 -25.71875 C 1.234375 -28.675781 1.953125 -30.910156 3.390625 -32.421875 C 4.835938 -33.929688 6.945312 -34.6875 9.71875 -34.6875 C 12.488281 -34.6875 14.59375 -33.929688 16.03125 -32.421875 C 17.476562 -30.910156 18.203125 -28.675781 18.203125 -25.71875 L 18.203125 -9.359375 C 18.203125 -6.265625 17.476562 -3.878906 16.03125 -2.203125 C 14.59375 -0.523438 12.488281 0.3125 9.71875 0.3125 Z M 9.71875 -6 C 10.332031 -6 10.742188 -6.265625 10.953125 -6.796875 C 11.171875 -7.328125 11.28125 -8.078125 11.28125 -9.046875 L 11.28125 -25.84375 C 11.28125 -26.582031 11.179688 -27.1875 10.984375 -27.65625 C 10.785156 -28.125 10.378906 -28.359375 9.765625 -28.359375 C 8.617188 -28.359375 8.046875 -27.492188 8.046875 -25.765625 L 8.046875 -9 C 8.046875 -8.007812 8.164062 -7.257812 8.40625 -6.75 C 8.644531 -6.25 9.082031 -6 9.71875 -6 Z M 9.71875 -6 "/></g></g><g style="fill:#d35400;fill-opacity:1;"><g transform="translate(283.396733, 173.592236)"><path style="stroke:none" d="M 1.515625 -34.359375 L 12.078125 -34.359375 C 13.753906 -34.359375 15.050781 -33.976562 15.96875 -33.21875 C 16.894531 -32.457031 17.515625 -31.390625 17.828125 -30.015625 C 18.148438 -28.640625 18.3125 -26.890625 18.3125 -24.765625 C 18.3125 -22.816406 18.054688 -21.296875 17.546875 -20.203125 C 17.046875 -19.109375 16.171875 -18.347656 14.921875 -17.921875 C 15.960938 -17.703125 16.710938 -17.179688 17.171875 -16.359375 C 17.640625 -15.535156 17.875 -14.414062 17.875 -13 L 17.796875 0 L 11.078125 0 L 11.078125 -13.4375 C 11.078125 -14.394531 10.890625 -15.007812 10.515625 -15.28125 C 10.140625 -15.550781 9.460938 -15.6875 8.484375 -15.6875 L 8.484375 0 L 1.515625 0 Z M 10.15625 -21.640625 C 11.113281 -21.640625 11.59375 -22.679688 11.59375 -24.765625 C 11.59375 -25.671875 11.550781 -26.347656 11.46875 -26.796875 C 11.394531 -27.253906 11.25 -27.566406 11.03125 -27.734375 C 10.820312 -27.910156 10.519531 -28 10.125 -28 L 8.515625 -28 L 8.515625 -21.640625 Z M 10.15625 -21.640625 "/></g></g><g style="fill:#d35400;fill-opacity:1;"><g transform="translate(302.474833, 173.592236)"><path style="stroke:none" d="M 5.6875 0 L 5.6875 -11.3125 L 0.203125 -34.359375 L 7 -34.359375 L 8.921875 -22.71875 L 10.84375 -34.359375 L 17.640625 -34.359375 L 12.15625 -11.3125 L 12.15625 0 Z M 5.6875 0 "/></g></g><g style="fill:#666769;fill-opacity:1;"><g transform="translate(8.707035, 249.618104)"><path style="stroke:none" d="M 0.765625 -17.1875 L 6.046875 -17.1875 C 6.878906 -17.1875 7.523438 -16.992188 7.984375 -16.609375 C 8.453125 -16.234375 8.765625 -15.703125 8.921875 -15.015625 C 9.078125 -14.328125 9.15625 -13.445312 9.15625 -12.375 C 9.15625 -11.40625 9.03125 -10.644531 8.78125 -10.09375 C 8.53125 -9.550781 8.085938 -9.171875 7.453125 -8.953125 C 7.972656 -8.847656 8.347656 -8.585938 8.578125 -8.171875 C 8.816406 -7.765625 8.9375 -7.207031 8.9375 -6.5 L 8.90625 0 L 5.546875 0 L 5.546875 -6.71875 C 5.546875 -7.195312 5.453125 -7.503906 5.265625 -7.640625 C 5.078125 -7.773438 4.734375 -7.84375 4.234375 -7.84375 L 4.234375 0 L 0.765625 0 Z M 5.078125 -10.8125 C 5.554688 -10.8125 5.796875 -11.332031 5.796875 -12.375 C 5.796875 -12.832031 5.773438 -13.171875 5.734375 -13.390625 C 5.703125 -13.617188 5.628906 -13.773438 5.515625 -13.859375 C 5.410156 -13.953125 5.257812 -14 5.0625 -14 L 4.265625 -14 L 4.265625 -10.8125 Z M 5.078125 -10.8125 "/></g></g><g style="fill:#666769;fill-opacity:1;"><g transform="translate(18.24327, 249.618104)"><path style="stroke:none" d="M 4.796875 0.15625 C 3.296875 0.15625 2.21875 -0.253906 1.5625 -1.078125 C 0.90625 -1.898438 0.578125 -3.132812 0.578125 -4.78125 L 0.578125 -10.65625 C 0.578125 -12.007812 0.960938 -13.035156 1.734375 -13.734375 C 2.515625 -14.441406 3.597656 -14.796875 4.984375 -14.796875 C 7.796875 -14.796875 9.203125 -13.414062 9.203125 -10.65625 L 9.203125 -9.59375 C 9.203125 -8.53125 9.1875 -7.664062 9.15625 -7 L 4.078125 -7 L 4.078125 -4.15625 C 4.078125 -3.65625 4.128906 -3.257812 4.234375 -2.96875 C 4.347656 -2.6875 4.578125 -2.546875 4.921875 -2.546875 C 5.179688 -2.546875 5.367188 -2.625 5.484375 -2.78125 C 5.597656 -2.9375 5.664062 -3.117188 5.6875 -3.328125 C 5.707031 -3.535156 5.71875 -3.835938 5.71875 -4.234375 L 5.71875 -5.65625 L 9.203125 -5.65625 L 9.203125 -4.8125 C 9.203125 -3.113281 8.867188 -1.859375 8.203125 -1.046875 C 7.546875 -0.242188 6.410156 0.15625 4.796875 0.15625 Z M 5.71875 -8.734375 L 5.71875 -10.625 C 5.71875 -11.675781 5.457031 -12.203125 4.9375 -12.203125 C 4.351562 -12.203125 4.0625 -11.675781 4.0625 -10.625 L 4.0625 -8.734375 Z M 5.71875 -8.734375 "/></g></g><g style="fill:#666769;fill-opacity:1;"><g transform="translate(27.999427, 249.618104)"><path style="stroke:none" d="M 1.015625 -11.34375 L 0.40625 -11.34375 L 0.421875 -14 L 1.015625 -14 L 1.015625 -15 C 1.015625 -16.570312 1.800781 -17.359375 3.375 -17.359375 C 4.125 -17.359375 4.726562 -17.265625 5.1875 -17.078125 L 5.1875 -14.921875 C 5.050781 -14.960938 4.941406 -14.984375 4.859375 -14.984375 C 4.671875 -14.984375 4.550781 -14.914062 4.5 -14.78125 C 4.445312 -14.644531 4.421875 -14.445312 4.421875 -14.1875 L 4.421875 -14 L 5.1875 -14 L 5.1875 -11.296875 L 4.5 -11.296875 L 4.5 0 L 1.015625 0 Z M 1.015625 -11.34375 "/></g></g><g style="fill:#666769;fill-opacity:1;"><g transform="translate(33.597224, 249.618104)"><path style="stroke:none" d="M 0.703125 -14.640625 L 4.203125 -14.640625 L 4.203125 -13.015625 C 4.367188 -13.585938 4.671875 -14.03125 5.109375 -14.34375 C 5.546875 -14.65625 6.082031 -14.8125 6.71875 -14.8125 L 6.71875 -11.90625 C 6.226562 -11.90625 5.6875 -11.832031 5.09375 -11.6875 C 4.5 -11.550781 4.203125 -11.390625 4.203125 -11.203125 L 4.203125 0 L 0.703125 0 Z M 0.703125 -14.640625 "/></g></g><g style="fill:#666769;fill-opacity:1;"><g transform="translate(40.474516, 249.618104)"><path style="stroke:none" d="M 3.359375 0.15625 C 2.222656 0.15625 1.445312 -0.21875 1.03125 -0.96875 C 0.613281 -1.71875 0.40625 -2.796875 0.40625 -4.203125 C 0.40625 -5.347656 0.550781 -6.226562 0.84375 -6.84375 C 1.144531 -7.457031 1.5625 -7.90625 2.09375 -8.1875 C 2.632812 -8.476562 3.453125 -8.796875 4.546875 -9.140625 L 5.5 -9.453125 L 5.5 -10.953125 C 5.5 -11.347656 5.421875 -11.644531 5.265625 -11.84375 C 5.117188 -12.050781 4.9375 -12.15625 4.71875 -12.15625 C 4.53125 -12.15625 4.363281 -12.066406 4.21875 -11.890625 C 4.082031 -11.722656 4.015625 -11.492188 4.015625 -11.203125 L 4.015625 -10.3125 L 0.625 -10.3125 L 0.625 -10.796875 C 0.625 -12.234375 0.957031 -13.257812 1.625 -13.875 C 2.300781 -14.488281 3.398438 -14.796875 4.921875 -14.796875 C 6.128906 -14.796875 7.113281 -14.476562 7.875 -13.84375 C 8.632812 -13.21875 9.015625 -12.320312 9.015625 -11.15625 L 9.015625 0 L 5.546875 0 L 5.546875 -1.734375 C 5.367188 -1.140625 5.085938 -0.675781 4.703125 -0.34375 C 4.328125 -0.0078125 3.878906 0.15625 3.359375 0.15625 Z M 4.734375 -2.5625 C 5.003906 -2.5625 5.195312 -2.671875 5.3125 -2.890625 C 5.425781 -3.109375 5.484375 -3.378906 5.484375 -3.703125 L 5.484375 -7.78125 C 4.960938 -7.582031 4.578125 -7.328125 4.328125 -7.015625 C 4.078125 -6.710938 3.953125 -6.285156 3.953125 -5.734375 L 3.953125 -3.859375 C 3.953125 -2.992188 4.210938 -2.5625 4.734375 -2.5625 Z M 4.734375 -2.5625 "/></g></g><g style="fill:#666769;fill-opacity:1;"><g transform="translate(50.130708, 249.618104)"><path style="stroke:none" d="M 5.09375 0.15625 C 3.5 0.15625 2.347656 -0.25 1.640625 -1.0625 C 0.929688 -1.875 0.578125 -3.117188 0.578125 -4.796875 L 0.578125 -9.3125 C 0.578125 -10.582031 0.710938 -11.613281 0.984375 -12.40625 C 1.265625 -13.195312 1.726562 -13.789062 2.375 -14.1875 C 3.019531 -14.59375 3.914062 -14.796875 5.0625 -14.796875 C 6.3125 -14.796875 7.328125 -14.46875 8.109375 -13.8125 C 8.898438 -13.164062 9.296875 -12.253906 9.296875 -11.078125 L 9.296875 -8.84375 L 5.734375 -8.84375 L 5.734375 -10.90625 C 5.734375 -11.289062 5.679688 -11.582031 5.578125 -11.78125 C 5.472656 -11.988281 5.265625 -12.09375 4.953125 -12.09375 C 4.378906 -12.09375 4.09375 -11.6875 4.09375 -10.875 L 4.09375 -3.78125 C 4.09375 -3.445312 4.160156 -3.160156 4.296875 -2.921875 C 4.441406 -2.691406 4.65625 -2.578125 4.9375 -2.578125 C 5.21875 -2.578125 5.425781 -2.691406 5.5625 -2.921875 C 5.707031 -3.148438 5.773438 -3.441406 5.765625 -3.796875 L 5.734375 -6.265625 L 9.296875 -6.265625 L 9.296875 -3.703125 C 9.296875 -2.503906 8.90625 -1.5625 8.125 -0.875 C 7.34375 -0.1875 6.332031 0.15625 5.09375 0.15625 Z M 5.09375 0.15625 "/></g></g><g style="fill:#666769;fill-opacity:1;"><g transform="translate(59.946831, 249.618104)"><path style="stroke:none" d="M 3.71875 0.15625 C 2.800781 0.15625 2.164062 -0.0351562 1.8125 -0.421875 C 1.46875 -0.804688 1.296875 -1.425781 1.296875 -2.28125 L 1.296875 -11.421875 L 0.3125 -11.421875 L 0.3125 -14.078125 L 1.296875 -14.078125 L 1.296875 -17.1875 L 4.703125 -17.1875 L 4.703125 -14.078125 L 5.703125 -14.078125 L 5.703125 -11.421875 L 4.703125 -11.421875 L 4.703125 -3.203125 C 4.703125 -2.941406 4.71875 -2.75 4.75 -2.625 C 4.789062 -2.507812 4.898438 -2.453125 5.078125 -2.453125 C 5.210938 -2.453125 5.335938 -2.457031 5.453125 -2.46875 C 5.578125 -2.488281 5.660156 -2.5 5.703125 -2.5 L 5.703125 -0.09375 C 5.503906 -0.0390625 5.210938 0.0078125 4.828125 0.0625 C 4.453125 0.125 4.082031 0.15625 3.71875 0.15625 Z M 3.71875 0.15625 "/></g></g><g style="fill:#666769;fill-opacity:1;"><g transform="translate(66.044426, 249.618104)"><path style="stroke:none" d="M 4.953125 0.15625 C 2.035156 0.15625 0.578125 -1.351562 0.578125 -4.375 L 0.578125 -10.265625 C 0.578125 -11.648438 0.96875 -12.75 1.75 -13.5625 C 2.53125 -14.382812 3.597656 -14.796875 4.953125 -14.796875 C 6.316406 -14.796875 7.390625 -14.382812 8.171875 -13.5625 C 8.953125 -12.75 9.34375 -11.648438 9.34375 -10.265625 L 9.34375 -4.375 C 9.34375 -1.351562 7.878906 0.15625 4.953125 0.15625 Z M 4.953125 -2.546875 C 5.234375 -2.546875 5.441406 -2.644531 5.578125 -2.84375 C 5.710938 -3.039062 5.78125 -3.3125 5.78125 -3.65625 L 5.78125 -10.8125 C 5.78125 -11.664062 5.503906 -12.09375 4.953125 -12.09375 C 4.410156 -12.09375 4.140625 -11.664062 4.140625 -10.8125 L 4.140625 -3.65625 C 4.140625 -3.3125 4.207031 -3.039062 4.34375 -2.84375 C 4.476562 -2.644531 4.679688 -2.546875 4.953125 -2.546875 Z M 4.953125 -2.546875 "/></g></g><g style="fill:#666769;fill-opacity:1;"><g transform="translate(75.980506, 249.618104)"><path style="stroke:none" d="M 0.703125 -14.640625 L 4.203125 -14.640625 L 4.203125 -13.015625 C 4.367188 -13.585938 4.671875 -14.03125 5.109375 -14.34375 C 5.546875 -14.65625 6.082031 -14.8125 6.71875 -14.8125 L 6.71875 -11.90625 C 6.226562 -11.90625 5.6875 -11.832031 5.09375 -11.6875 C 4.5 -11.550781 4.203125 -11.390625 4.203125 -11.203125 L 4.203125 0 L 0.703125 0 Z M 0.703125 -14.640625 "/></g></g><g style="fill:#666769;fill-opacity:1;"><g transform="translate(82.857799, 249.618104)"><path style="stroke:none" d="M 0.421875 0.21875 L 2.09375 0.21875 C 2.332031 0.21875 2.453125 0.117188 2.453125 -0.078125 C 2.453125 -0.171875 2.445312 -0.242188 2.4375 -0.296875 L 0.15625 -14.640625 L 3.5 -14.640625 L 4.15625 -7.5 L 4.484375 -3.859375 L 4.859375 -7.5 L 5.640625 -14.640625 L 9 -14.640625 L 6.28125 0.765625 C 6.1875 1.335938 5.992188 1.757812 5.703125 2.03125 C 5.421875 2.300781 4.972656 2.4375 4.359375 2.4375 L 0.421875 2.4375 Z M 0.421875 0.21875 "/></g></g><g style="fill:#666769;fill-opacity:1;"><g transform="translate(92.07416, 249.618104)"><path style="stroke:none" d=""/></g></g><g style="fill:#666769;fill-opacity:1;"><g transform="translate(96.75231, 249.618104)"><path style="stroke:none" d="M 4.84375 0.15625 C 3.28125 0.15625 2.148438 -0.226562 1.453125 -1 C 0.765625 -1.769531 0.421875 -3.015625 0.421875 -4.734375 L 0.421875 -6.421875 L 3.796875 -6.421875 L 3.796875 -4.28125 C 3.796875 -3.425781 4.070312 -3 4.625 -3 C 4.925781 -3 5.132812 -3.085938 5.25 -3.265625 C 5.375 -3.453125 5.4375 -3.757812 5.4375 -4.1875 C 5.4375 -4.738281 5.367188 -5.195312 5.234375 -5.5625 C 5.109375 -5.9375 4.941406 -6.242188 4.734375 -6.484375 C 4.523438 -6.734375 4.15625 -7.117188 3.625 -7.640625 L 2.140625 -9.125 C 0.992188 -10.238281 0.421875 -11.476562 0.421875 -12.84375 C 0.421875 -14.3125 0.753906 -15.425781 1.421875 -16.1875 C 2.097656 -16.957031 3.082031 -17.34375 4.375 -17.34375 C 5.925781 -17.34375 7.039062 -16.929688 7.71875 -16.109375 C 8.394531 -15.285156 8.734375 -14.003906 8.734375 -12.265625 L 5.234375 -12.265625 L 5.21875 -13.4375 C 5.21875 -13.664062 5.15625 -13.847656 5.03125 -13.984375 C 4.90625 -14.117188 4.726562 -14.1875 4.5 -14.1875 C 4.226562 -14.1875 4.023438 -14.109375 3.890625 -13.953125 C 3.765625 -13.804688 3.703125 -13.609375 3.703125 -13.359375 C 3.703125 -12.796875 4.019531 -12.21875 4.65625 -11.625 L 6.65625 -9.703125 C 7.125 -9.242188 7.507812 -8.8125 7.8125 -8.40625 C 8.125 -8 8.375 -7.519531 8.5625 -6.96875 C 8.75 -6.414062 8.84375 -5.757812 8.84375 -5 C 8.84375 -3.300781 8.53125 -2.015625 7.90625 -1.140625 C 7.289062 -0.273438 6.269531 0.15625 4.84375 0.15625 Z M 4.84375 0.15625 "/></g></g><g style="fill:#666769;fill-opacity:1;"><g transform="translate(105.968671, 249.618104)"><path style="stroke:none" d="M 4.953125 0.15625 C 2.035156 0.15625 0.578125 -1.351562 0.578125 -4.375 L 0.578125 -10.265625 C 0.578125 -11.648438 0.96875 -12.75 1.75 -13.5625 C 2.53125 -14.382812 3.597656 -14.796875 4.953125 -14.796875 C 6.316406 -14.796875 7.390625 -14.382812 8.171875 -13.5625 C 8.953125 -12.75 9.34375 -11.648438 9.34375 -10.265625 L 9.34375 -4.375 C 9.34375 -1.351562 7.878906 0.15625 4.953125 0.15625 Z M 4.953125 -2.546875 C 5.234375 -2.546875 5.441406 -2.644531 5.578125 -2.84375 C 5.710938 -3.039062 5.78125 -3.3125 5.78125 -3.65625 L 5.78125 -10.8125 C 5.78125 -11.664062 5.503906 -12.09375 4.953125 -12.09375 C 4.410156 -12.09375 4.140625 -11.664062 4.140625 -10.8125 L 4.140625 -3.65625 C 4.140625 -3.3125 4.207031 -3.039062 4.34375 -2.84375 C 4.476562 -2.644531 4.679688 -2.546875 4.953125 -2.546875 Z M 4.953125 -2.546875 "/></g></g><g style="fill:#666769;fill-opacity:1;"><g transform="translate(115.904752, 249.618104)"><path style="stroke:none" d="M 0.703125 0 L 0.703125 -17.28125 L 4.265625 -17.28125 L 4.265625 0 Z M 0.703125 0 "/></g></g><g style="fill:#666769;fill-opacity:1;"><g transform="translate(120.862801, 249.618104)"><path style="stroke:none" d="M 3.515625 0.15625 C 2.421875 0.15625 1.671875 -0.164062 1.265625 -0.8125 C 0.859375 -1.46875 0.65625 -2.441406 0.65625 -3.734375 L 0.65625 -14.640625 L 4.1875 -14.640625 L 4.1875 -4.4375 C 4.1875 -4.34375 4.1875 -4.09375 4.1875 -3.6875 C 4.1875 -3.28125 4.25 -2.992188 4.375 -2.828125 C 4.5 -2.660156 4.691406 -2.578125 4.953125 -2.578125 C 5.316406 -2.578125 5.546875 -2.726562 5.640625 -3.03125 C 5.734375 -3.332031 5.78125 -3.757812 5.78125 -4.3125 L 5.78125 -4.4375 L 5.796875 -14.640625 L 9.28125 -14.640625 L 9.28125 0 L 5.78125 0 L 5.78125 -1.5625 C 5.539062 -0.945312 5.257812 -0.503906 4.9375 -0.234375 C 4.613281 0.0234375 4.140625 0.15625 3.515625 0.15625 Z M 3.515625 0.15625 "/></g></g><g style="fill:#666769;fill-opacity:1;"><g transform="translate(130.838867, 249.618104)"><path style="stroke:none" d="M 3.71875 0.15625 C 2.800781 0.15625 2.164062 -0.0351562 1.8125 -0.421875 C 1.46875 -0.804688 1.296875 -1.425781 1.296875 -2.28125 L 1.296875 -11.421875 L 0.3125 -11.421875 L 0.3125 -14.078125 L 1.296875 -14.078125 L 1.296875 -17.1875 L 4.703125 -17.1875 L 4.703125 -14.078125 L 5.703125 -14.078125 L 5.703125 -11.421875 L 4.703125 -11.421875 L 4.703125 -3.203125 C 4.703125 -2.941406 4.71875 -2.75 4.75 -2.625 C 4.789062 -2.507812 4.898438 -2.453125 5.078125 -2.453125 C 5.210938 -2.453125 5.335938 -2.457031 5.453125 -2.46875 C 5.578125 -2.488281 5.660156 -2.5 5.703125 -2.5 L 5.703125 -0.09375 C 5.503906 -0.0390625 5.210938 0.0078125 4.828125 0.0625 C 4.453125 0.125 4.082031 0.15625 3.71875 0.15625 Z M 3.71875 0.15625 "/></g></g><g style="fill:#666769;fill-opacity:1;"><g transform="translate(136.936462, 249.618104)"><path style="stroke:none" d="M 0.6875 -15.625 L 0.6875 -18.0625 L 4.1875 -18.0625 L 4.1875 -15.625 Z M 0.6875 0 L 0.6875 -14.640625 L 4.1875 -14.640625 L 4.1875 0 Z M 0.6875 0 "/></g></g><g style="fill:#666769;fill-opacity:1;"><g transform="translate(141.794547, 249.618104)"><path style="stroke:none" d="M 4.953125 0.15625 C 2.035156 0.15625 0.578125 -1.351562 0.578125 -4.375 L 0.578125 -10.265625 C 0.578125 -11.648438 0.96875 -12.75 1.75 -13.5625 C 2.53125 -14.382812 3.597656 -14.796875 4.953125 -14.796875 C 6.316406 -14.796875 7.390625 -14.382812 8.171875 -13.5625 C 8.953125 -12.75 9.34375 -11.648438 9.34375 -10.265625 L 9.34375 -4.375 C 9.34375 -1.351562 7.878906 0.15625 4.953125 0.15625 Z M 4.953125 -2.546875 C 5.234375 -2.546875 5.441406 -2.644531 5.578125 -2.84375 C 5.710938 -3.039062 5.78125 -3.3125 5.78125 -3.65625 L 5.78125 -10.8125 C 5.78125 -11.664062 5.503906 -12.09375 4.953125 -12.09375 C 4.410156 -12.09375 4.140625 -11.664062 4.140625 -10.8125 L 4.140625 -3.65625 C 4.140625 -3.3125 4.207031 -3.039062 4.34375 -2.84375 C 4.476562 -2.644531 4.679688 -2.546875 4.953125 -2.546875 Z M 4.953125 -2.546875 "/></g></g><g style="fill:#666769;fill-opacity:1;"><g transform="translate(151.730627, 249.618104)"><path style="stroke:none" d="M 0.703125 -14.640625 L 4.203125 -14.640625 L 4.203125 -12.78125 C 4.347656 -13.382812 4.597656 -13.867188 4.953125 -14.234375 C 5.316406 -14.609375 5.800781 -14.796875 6.40625 -14.796875 C 7.382812 -14.796875 8.109375 -14.492188 8.578125 -13.890625 C 9.054688 -13.285156 9.296875 -12.421875 9.296875 -11.296875 L 9.296875 0 L 5.859375 0 L 5.859375 -10.9375 C 5.859375 -11.257812 5.796875 -11.53125 5.671875 -11.75 C 5.546875 -11.976562 5.347656 -12.09375 5.078125 -12.09375 C 4.722656 -12.09375 4.488281 -11.929688 4.375 -11.609375 C 4.257812 -11.285156 4.203125 -10.847656 4.203125 -10.296875 L 4.203125 0 L 0.703125 0 Z M 0.703125 -14.640625 "/></g></g><g style="fill:#666769;fill-opacity:1;"><g transform="translate(161.706693, 249.618104)"><path style="stroke:none" d="M 4.71875 0.15625 C 1.820312 0.15625 0.375 -1.304688 0.375 -4.234375 L 0.40625 -5.40625 L 3.90625 -5.40625 L 3.921875 -3.6875 C 3.921875 -3.332031 3.984375 -3.066406 4.109375 -2.890625 C 4.242188 -2.710938 4.46875 -2.625 4.78125 -2.625 C 5.25 -2.625 5.484375 -3.003906 5.484375 -3.765625 C 5.484375 -4.316406 5.367188 -4.753906 5.140625 -5.078125 C 4.921875 -5.398438 4.570312 -5.738281 4.09375 -6.09375 L 2.234375 -7.546875 C 1.597656 -8.035156 1.140625 -8.539062 0.859375 -9.0625 C 0.578125 -9.59375 0.4375 -10.335938 0.4375 -11.296875 C 0.4375 -12.046875 0.632812 -12.679688 1.03125 -13.203125 C 1.425781 -13.734375 1.945312 -14.128906 2.59375 -14.390625 C 3.25 -14.660156 3.976562 -14.796875 4.78125 -14.796875 C 7.625 -14.796875 9.046875 -13.382812 9.046875 -10.5625 L 9.046875 -10.28125 L 5.421875 -10.28125 L 5.421875 -10.84375 C 5.421875 -11.1875 5.363281 -11.476562 5.25 -11.71875 C 5.132812 -11.96875 4.945312 -12.09375 4.6875 -12.09375 C 4.4375 -12.09375 4.25 -12.023438 4.125 -11.890625 C 4 -11.753906 3.9375 -11.5625 3.9375 -11.3125 C 3.9375 -10.78125 4.144531 -10.367188 4.5625 -10.078125 L 6.71875 -8.5 C 7.488281 -7.925781 8.082031 -7.300781 8.5 -6.625 C 8.914062 -5.957031 9.125 -5.109375 9.125 -4.078125 C 9.125 -2.722656 8.734375 -1.675781 7.953125 -0.9375 C 7.179688 -0.207031 6.101562 0.15625 4.71875 0.15625 Z M 4.71875 0.15625 "/></g></g><g style="fill:#666769;fill-opacity:1;"><g transform="translate(171.202943, 249.618104)"><path style="stroke:none" d=""/></g></g><g style="fill:#666769;fill-opacity:1;"><g transform="translate(175.881093, 249.618104)"><path style="stroke:none" d="M 1.015625 -11.34375 L 0.40625 -11.34375 L 0.421875 -14 L 1.015625 -14 L 1.015625 -15 C 1.015625 -16.570312 1.800781 -17.359375 3.375 -17.359375 C 4.125 -17.359375 4.726562 -17.265625 5.1875 -17.078125 L 5.1875 -14.921875 C 5.050781 -14.960938 4.941406 -14.984375 4.859375 -14.984375 C 4.671875 -14.984375 4.550781 -14.914062 4.5 -14.78125 C 4.445312 -14.644531 4.421875 -14.445312 4.421875 -14.1875 L 4.421875 -14 L 5.1875 -14 L 5.1875 -11.296875 L 4.5 -11.296875 L 4.5 0 L 1.015625 0 Z M 1.015625 -11.34375 "/></g></g><g style="fill:#666769;fill-opacity:1;"><g transform="translate(181.47889, 249.618104)"><path style="stroke:none" d="M 4.953125 0.15625 C 2.035156 0.15625 0.578125 -1.351562 0.578125 -4.375 L 0.578125 -10.265625 C 0.578125 -11.648438 0.96875 -12.75 1.75 -13.5625 C 2.53125 -14.382812 3.597656 -14.796875 4.953125 -14.796875 C 6.316406 -14.796875 7.390625 -14.382812 8.171875 -13.5625 C 8.953125 -12.75 9.34375 -11.648438 9.34375 -10.265625 L 9.34375 -4.375 C 9.34375 -1.351562 7.878906 0.15625 4.953125 0.15625 Z M 4.953125 -2.546875 C 5.234375 -2.546875 5.441406 -2.644531 5.578125 -2.84375 C 5.710938 -3.039062 5.78125 -3.3125 5.78125 -3.65625 L 5.78125 -10.8125 C 5.78125 -11.664062 5.503906 -12.09375 4.953125 -12.09375 C 4.410156 -12.09375 4.140625 -11.664062 4.140625 -10.8125 L 4.140625 -3.65625 C 4.140625 -3.3125 4.207031 -3.039062 4.34375 -2.84375 C 4.476562 -2.644531 4.679688 -2.546875 4.953125 -2.546875 Z M 4.953125 -2.546875 "/></g></g><g style="fill:#666769;fill-opacity:1;"><g transform="translate(191.41497, 249.618104)"><path style="stroke:none" d="M 0.703125 -14.640625 L 4.203125 -14.640625 L 4.203125 -13.015625 C 4.367188 -13.585938 4.671875 -14.03125 5.109375 -14.34375 C 5.546875 -14.65625 6.082031 -14.8125 6.71875 -14.8125 L 6.71875 -11.90625 C 6.226562 -11.90625 5.6875 -11.832031 5.09375 -11.6875 C 4.5 -11.550781 4.203125 -11.390625 4.203125 -11.203125 L 4.203125 0 L 0.703125 0 Z M 0.703125 -14.640625 "/></g></g><g style="fill:#666769;fill-opacity:1;"><g transform="translate(198.292262, 249.618104)"><path style="stroke:none" d=""/></g></g><g style="fill:#666769;fill-opacity:1;"><g transform="translate(202.970412, 249.618104)"><path style="stroke:none" d="M 3.359375 0.15625 C 2.222656 0.15625 1.445312 -0.21875 1.03125 -0.96875 C 0.613281 -1.71875 0.40625 -2.796875 0.40625 -4.203125 C 0.40625 -5.347656 0.550781 -6.226562 0.84375 -6.84375 C 1.144531 -7.457031 1.5625 -7.90625 2.09375 -8.1875 C 2.632812 -8.476562 3.453125 -8.796875 4.546875 -9.140625 L 5.5 -9.453125 L 5.5 -10.953125 C 5.5 -11.347656 5.421875 -11.644531 5.265625 -11.84375 C 5.117188 -12.050781 4.9375 -12.15625 4.71875 -12.15625 C 4.53125 -12.15625 4.363281 -12.066406 4.21875 -11.890625 C 4.082031 -11.722656 4.015625 -11.492188 4.015625 -11.203125 L 4.015625 -10.3125 L 0.625 -10.3125 L 0.625 -10.796875 C 0.625 -12.234375 0.957031 -13.257812 1.625 -13.875 C 2.300781 -14.488281 3.398438 -14.796875 4.921875 -14.796875 C 6.128906 -14.796875 7.113281 -14.476562 7.875 -13.84375 C 8.632812 -13.21875 9.015625 -12.320312 9.015625 -11.15625 L 9.015625 0 L 5.546875 0 L 5.546875 -1.734375 C 5.367188 -1.140625 5.085938 -0.675781 4.703125 -0.34375 C 4.328125 -0.0078125 3.878906 0.15625 3.359375 0.15625 Z M 4.734375 -2.5625 C 5.003906 -2.5625 5.195312 -2.671875 5.3125 -2.890625 C 5.425781 -3.109375 5.484375 -3.378906 5.484375 -3.703125 L 5.484375 -7.78125 C 4.960938 -7.582031 4.578125 -7.328125 4.328125 -7.015625 C 4.078125 -6.710938 3.953125 -6.285156 3.953125 -5.734375 L 3.953125 -3.859375 C 3.953125 -2.992188 4.210938 -2.5625 4.734375 -2.5625 Z M 4.734375 -2.5625 "/></g></g><g style="fill:#666769;fill-opacity:1;"><g transform="translate(212.626593, 249.618104)"><path style="stroke:none" d=""/></g></g><g style="fill:#666769;fill-opacity:1;"><g transform="translate(217.304754, 249.618104)"><path style="stroke:none" d="M 2.234375 0 L 2.234375 -13.875 L 0.203125 -13.875 L 0.203125 -17.1875 L 7.71875 -17.1875 L 7.71875 -13.875 L 5.6875 -13.875 L 5.6875 0 Z M 2.234375 0 "/></g></g><g style="fill:#666769;fill-opacity:1;"><g transform="translate(224.781728, 249.618104)"><path style="stroke:none" d="M 4.953125 0.15625 C 2.035156 0.15625 0.578125 -1.351562 0.578125 -4.375 L 0.578125 -10.265625 C 0.578125 -11.648438 0.96875 -12.75 1.75 -13.5625 C 2.53125 -14.382812 3.597656 -14.796875 4.953125 -14.796875 C 6.316406 -14.796875 7.390625 -14.382812 8.171875 -13.5625 C 8.953125 -12.75 9.34375 -11.648438 9.34375 -10.265625 L 9.34375 -4.375 C 9.34375 -1.351562 7.878906 0.15625 4.953125 0.15625 Z M 4.953125 -2.546875 C 5.234375 -2.546875 5.441406 -2.644531 5.578125 -2.84375 C 5.710938 -3.039062 5.78125 -3.3125 5.78125 -3.65625 L 5.78125 -10.8125 C 5.78125 -11.664062 5.503906 -12.09375 4.953125 -12.09375 C 4.410156 -12.09375 4.140625 -11.664062 4.140625 -10.8125 L 4.140625 -3.65625 C 4.140625 -3.3125 4.207031 -3.039062 4.34375 -2.84375 C 4.476562 -2.644531 4.679688 -2.546875 4.953125 -2.546875 Z M 4.953125 -2.546875 "/></g></g><g style="fill:#666769;fill-opacity:1;"><g transform="translate(234.717808, 249.618104)"><path style="stroke:none" d="M 3.515625 0.15625 C 2.421875 0.15625 1.671875 -0.164062 1.265625 -0.8125 C 0.859375 -1.46875 0.65625 -2.441406 0.65625 -3.734375 L 0.65625 -14.640625 L 4.1875 -14.640625 L 4.1875 -4.4375 C 4.1875 -4.34375 4.1875 -4.09375 4.1875 -3.6875 C 4.1875 -3.28125 4.25 -2.992188 4.375 -2.828125 C 4.5 -2.660156 4.691406 -2.578125 4.953125 -2.578125 C 5.316406 -2.578125 5.546875 -2.726562 5.640625 -3.03125 C 5.734375 -3.332031 5.78125 -3.757812 5.78125 -4.3125 L 5.78125 -4.4375 L 5.796875 -14.640625 L 9.28125 -14.640625 L 9.28125 0 L 5.78125 0 L 5.78125 -1.5625 C 5.539062 -0.945312 5.257812 -0.503906 4.9375 -0.234375 C 4.613281 0.0234375 4.140625 0.15625 3.515625 0.15625 Z M 3.515625 0.15625 "/></g></g><g style="fill:#666769;fill-opacity:1;"><g transform="translate(244.693897, 249.618104)"><path style="stroke:none" d="M 4.640625 2.140625 C 3.597656 2.140625 2.78125 2.054688 2.1875 1.890625 C 1.59375 1.722656 1.007812 1.40625 0.4375 0.9375 L 1.640625 -1.078125 C 2.492188 -0.566406 3.34375 -0.3125 4.1875 -0.3125 C 4.726562 -0.3125 5.140625 -0.484375 5.421875 -0.828125 C 5.703125 -1.179688 5.84375 -1.660156 5.84375 -2.265625 L 5.84375 -3.0625 C 5.5625 -2.0625 4.820312 -1.5625 3.625 -1.5625 C 2.625 -1.5625 1.882812 -1.898438 1.40625 -2.578125 C 0.9375 -3.253906 0.703125 -4.160156 0.703125 -5.296875 L 0.703125 -10.796875 C 0.703125 -12.085938 0.914062 -13.078125 1.34375 -13.765625 C 1.78125 -14.453125 2.539062 -14.796875 3.625 -14.796875 C 4.25 -14.796875 4.742188 -14.640625 5.109375 -14.328125 C 5.472656 -14.015625 5.71875 -13.570312 5.84375 -13 L 5.84375 -14.640625 L 9.421875 -14.640625 L 9.421875 -2.484375 C 9.421875 -0.835938 9.039062 0.34375 8.28125 1.0625 C 7.519531 1.78125 6.304688 2.140625 4.640625 2.140625 Z M 5.015625 -4.203125 C 5.566406 -4.203125 5.84375 -4.695312 5.84375 -5.6875 L 5.84375 -10.90625 C 5.84375 -11.195312 5.757812 -11.472656 5.59375 -11.734375 C 5.4375 -12.003906 5.238281 -12.140625 5 -12.140625 C 4.695312 -12.140625 4.488281 -12.03125 4.375 -11.8125 C 4.269531 -11.59375 4.21875 -11.289062 4.21875 -10.90625 L 4.21875 -5.6875 C 4.21875 -5.238281 4.269531 -4.878906 4.375 -4.609375 C 4.488281 -4.335938 4.703125 -4.203125 5.015625 -4.203125 Z M 5.015625 -4.203125 "/></g></g><g style="fill:#666769;fill-opacity:1;"><g transform="translate(254.769916, 249.618104)"><path style="stroke:none" d="M 0.703125 -17.28125 L 4.296875 -17.28125 L 4.296875 -13.203125 C 4.671875 -14.265625 5.382812 -14.796875 6.4375 -14.796875 C 7.425781 -14.796875 8.171875 -14.484375 8.671875 -13.859375 C 9.179688 -13.234375 9.4375 -12.375 9.4375 -11.28125 L 9.4375 0 L 5.9375 0 L 5.9375 -11.0625 C 5.9375 -11.382812 5.863281 -11.644531 5.71875 -11.84375 C 5.570312 -12.039062 5.359375 -12.140625 5.078125 -12.140625 C 4.835938 -12.140625 4.644531 -12.035156 4.5 -11.828125 C 4.363281 -11.617188 4.296875 -11.367188 4.296875 -11.078125 L 4.296875 0 L 0.703125 0 Z M 0.703125 -17.28125 "/></g></g><g style="fill:#666769;fill-opacity:1;"><g transform="translate(264.865939, 249.618104)"><path style="stroke:none" d="M 4.796875 0.15625 C 3.296875 0.15625 2.21875 -0.253906 1.5625 -1.078125 C 0.90625 -1.898438 0.578125 -3.132812 0.578125 -4.78125 L 0.578125 -10.65625 C 0.578125 -12.007812 0.960938 -13.035156 1.734375 -13.734375 C 2.515625 -14.441406 3.597656 -14.796875 4.984375 -14.796875 C 7.796875 -14.796875 9.203125 -13.414062 9.203125 -10.65625 L 9.203125 -9.59375 C 9.203125 -8.53125 9.1875 -7.664062 9.15625 -7 L 4.078125 -7 L 4.078125 -4.15625 C 4.078125 -3.65625 4.128906 -3.257812 4.234375 -2.96875 C 4.347656 -2.6875 4.578125 -2.546875 4.921875 -2.546875 C 5.179688 -2.546875 5.367188 -2.625 5.484375 -2.78125 C 5.597656 -2.9375 5.664062 -3.117188 5.6875 -3.328125 C 5.707031 -3.535156 5.71875 -3.835938 5.71875 -4.234375 L 5.71875 -5.65625 L 9.203125 -5.65625 L 9.203125 -4.8125 C 9.203125 -3.113281 8.867188 -1.859375 8.203125 -1.046875 C 7.546875 -0.242188 6.410156 0.15625 4.796875 0.15625 Z M 5.71875 -8.734375 L 5.71875 -10.625 C 5.71875 -11.675781 5.457031 -12.203125 4.9375 -12.203125 C 4.351562 -12.203125 4.0625 -11.675781 4.0625 -10.625 L 4.0625 -8.734375 Z M 5.71875 -8.734375 "/></g></g><g style="fill:#666769;fill-opacity:1;"><g transform="translate(274.622072, 249.618104)"><path style="stroke:none" d="M 0.703125 -14.640625 L 4.203125 -14.640625 L 4.203125 -13.015625 C 4.367188 -13.585938 4.671875 -14.03125 5.109375 -14.34375 C 5.546875 -14.65625 6.082031 -14.8125 6.71875 -14.8125 L 6.71875 -11.90625 C 6.226562 -11.90625 5.6875 -11.832031 5.09375 -11.6875 C 4.5 -11.550781 4.203125 -11.390625 4.203125 -11.203125 L 4.203125 0 L 0.703125 0 Z M 0.703125 -14.640625 "/></g></g><g style="fill:#666769;fill-opacity:1;"><g transform="translate(281.499376, 249.618104)"><path style="stroke:none" d=""/></g></g><g style="fill:#666769;fill-opacity:1;"><g transform="translate(286.177537, 249.618104)"><path style="stroke:none" d="M 2.234375 0 L 2.234375 -13.875 L 0.203125 -13.875 L 0.203125 -17.1875 L 7.71875 -17.1875 L 7.71875 -13.875 L 5.6875 -13.875 L 5.6875 0 Z M 2.234375 0 "/></g></g><g style="fill:#666769;fill-opacity:1;"><g transform="translate(293.654511, 249.618104)"><path style="stroke:none" d="M 4.953125 0.15625 C 2.035156 0.15625 0.578125 -1.351562 0.578125 -4.375 L 0.578125 -10.265625 C 0.578125 -11.648438 0.96875 -12.75 1.75 -13.5625 C 2.53125 -14.382812 3.597656 -14.796875 4.953125 -14.796875 C 6.316406 -14.796875 7.390625 -14.382812 8.171875 -13.5625 C 8.953125 -12.75 9.34375 -11.648438 9.34375 -10.265625 L 9.34375 -4.375 C 9.34375 -1.351562 7.878906 0.15625 4.953125 0.15625 Z M 4.953125 -2.546875 C 5.234375 -2.546875 5.441406 -2.644531 5.578125 -2.84375 C 5.710938 -3.039062 5.78125 -3.3125 5.78125 -3.65625 L 5.78125 -10.8125 C 5.78125 -11.664062 5.503906 -12.09375 4.953125 -12.09375 C 4.410156 -12.09375 4.140625 -11.664062 4.140625 -10.8125 L 4.140625 -3.65625 C 4.140625 -3.3125 4.207031 -3.039062 4.34375 -2.84375 C 4.476562 -2.644531 4.679688 -2.546875 4.953125 -2.546875 Z M 4.953125 -2.546875 "/></g></g><g style="fill:#666769;fill-opacity:1;"><g transform="translate(303.590591, 249.618104)"><path style="stroke:none" d="M 0.703125 -14.640625 L 4.125 -14.640625 L 4.125 -12.9375 C 4.28125 -13.5625 4.550781 -14.023438 4.9375 -14.328125 C 5.320312 -14.640625 5.867188 -14.796875 6.578125 -14.796875 C 7.148438 -14.796875 7.644531 -14.664062 8.0625 -14.40625 C 8.488281 -14.144531 8.785156 -13.789062 8.953125 -13.34375 C 9.253906 -13.84375 9.582031 -14.207031 9.9375 -14.4375 C 10.300781 -14.675781 10.800781 -14.796875 11.4375 -14.796875 C 12.582031 -14.796875 13.378906 -14.445312 13.828125 -13.75 C 14.273438 -13.050781 14.5 -12.035156 14.5 -10.703125 L 14.453125 0 L 10.9375 0 L 10.9375 -10.765625 C 10.9375 -11.710938 10.695312 -12.1875 10.21875 -12.1875 C 9.882812 -12.1875 9.644531 -12.019531 9.5 -11.6875 C 9.351562 -11.363281 9.28125 -10.972656 9.28125 -10.515625 L 9.28125 0 L 5.78125 0 L 5.78125 -10.765625 C 5.78125 -11.171875 5.734375 -11.5 5.640625 -11.75 C 5.554688 -12.007812 5.375 -12.140625 5.09375 -12.140625 C 4.738281 -12.140625 4.488281 -11.960938 4.34375 -11.609375 C 4.195312 -11.253906 4.125 -10.832031 4.125 -10.34375 L 4.125 0 L 0.703125 0 Z M 0.703125 -14.640625 "/></g></g><g style="fill:#666769;fill-opacity:1;"><g transform="translate(318.744627, 249.618104)"><path style="stroke:none" d="M 4.953125 0.15625 C 2.035156 0.15625 0.578125 -1.351562 0.578125 -4.375 L 0.578125 -10.265625 C 0.578125 -11.648438 0.96875 -12.75 1.75 -13.5625 C 2.53125 -14.382812 3.597656 -14.796875 4.953125 -14.796875 C 6.316406 -14.796875 7.390625 -14.382812 8.171875 -13.5625 C 8.953125 -12.75 9.34375 -11.648438 9.34375 -10.265625 L 9.34375 -4.375 C 9.34375 -1.351562 7.878906 0.15625 4.953125 0.15625 Z M 4.953125 -2.546875 C 5.234375 -2.546875 5.441406 -2.644531 5.578125 -2.84375 C 5.710938 -3.039062 5.78125 -3.3125 5.78125 -3.65625 L 5.78125 -10.8125 C 5.78125 -11.664062 5.503906 -12.09375 4.953125 -12.09375 C 4.410156 -12.09375 4.140625 -11.664062 4.140625 -10.8125 L 4.140625 -3.65625 C 4.140625 -3.3125 4.207031 -3.039062 4.34375 -2.84375 C 4.476562 -2.644531 4.679688 -2.546875 4.953125 -2.546875 Z M 4.953125 -2.546875 "/></g></g><g style="fill:#666769;fill-opacity:1;"><g transform="translate(328.680708, 249.618104)"><path style="stroke:none" d="M 0.703125 -14.640625 L 4.203125 -14.640625 L 4.203125 -13.015625 C 4.367188 -13.585938 4.671875 -14.03125 5.109375 -14.34375 C 5.546875 -14.65625 6.082031 -14.8125 6.71875 -14.8125 L 6.71875 -11.90625 C 6.226562 -11.90625 5.6875 -11.832031 5.09375 -11.6875 C 4.5 -11.550781 4.203125 -11.390625 4.203125 -11.203125 L 4.203125 0 L 0.703125 0 Z M 0.703125 -14.640625 "/></g></g><g style="fill:#666769;fill-opacity:1;"><g transform="translate(335.557989, 249.618104)"><path style="stroke:none" d="M 0.703125 -14.640625 L 4.203125 -14.640625 L 4.203125 -13.015625 C 4.367188 -13.585938 4.671875 -14.03125 5.109375 -14.34375 C 5.546875 -14.65625 6.082031 -14.8125 6.71875 -14.8125 L 6.71875 -11.90625 C 6.226562 -11.90625 5.6875 -11.832031 5.09375 -11.6875 C 4.5 -11.550781 4.203125 -11.390625 4.203125 -11.203125 L 4.203125 0 L 0.703125 0 Z M 0.703125 -14.640625 "/></g></g><g style="fill:#666769;fill-opacity:1;"><g transform="translate(342.435269, 249.618104)"><path style="stroke:none" d="M 4.953125 0.15625 C 2.035156 0.15625 0.578125 -1.351562 0.578125 -4.375 L 0.578125 -10.265625 C 0.578125 -11.648438 0.96875 -12.75 1.75 -13.5625 C 2.53125 -14.382812 3.597656 -14.796875 4.953125 -14.796875 C 6.316406 -14.796875 7.390625 -14.382812 8.171875 -13.5625 C 8.953125 -12.75 9.34375 -11.648438 9.34375 -10.265625 L 9.34375 -4.375 C 9.34375 -1.351562 7.878906 0.15625 4.953125 0.15625 Z M 4.953125 -2.546875 C 5.234375 -2.546875 5.441406 -2.644531 5.578125 -2.84375 C 5.710938 -3.039062 5.78125 -3.3125 5.78125 -3.65625 L 5.78125 -10.8125 C 5.78125 -11.664062 5.503906 -12.09375 4.953125 -12.09375 C 4.410156 -12.09375 4.140625 -11.664062 4.140625 -10.8125 L 4.140625 -3.65625 C 4.140625 -3.3125 4.207031 -3.039062 4.34375 -2.84375 C 4.476562 -2.644531 4.679688 -2.546875 4.953125 -2.546875 Z M 4.953125 -2.546875 "/></g></g><g style="fill:#666769;fill-opacity:1;"><g transform="translate(352.37135, 249.618104)"><path style="stroke:none" d="M 2.234375 0 L 0.453125 -14.640625 L 3.453125 -14.640625 L 4.4375 -6.78125 L 5.28125 -14.640625 L 8.34375 -14.640625 L 9.34375 -6.78125 L 10.15625 -14.640625 L 13.453125 -14.640625 L 11.578125 0 L 8.078125 0 L 7.046875 -8.3125 L 6.125 0 Z M 2.234375 0 "/></g></g></g></svg>