<svg xmlns="http://www.w3.org/2000/svg" version="1.1" xmlns:xlink="http://www.w3.org/1999/xlink" width="500" height="500"><svg xmlns="http://www.w3.org/2000/svg" xmlns:xlink="http://www.w3.org/1999/xlink" width="500" zoomAndPan="magnify" viewBox="0 0 375 374.999991" height="500" preserveAspectRatio="xMidYMid meet" version="1.2"><defs><clipPath id="SvgjsClipPath1005"><path d="M 112.5 138 L 262.5 138 L 262.5 258.5625 L 112.5 258.5625 Z M 112.5 138 "></path></clipPath><clipPath id="SvgjsClipPath1004"><path d="M 175 116.8125 L 206 116.8125 L 206 162 L 175 162 Z M 175 116.8125 "></path></clipPath></defs><g id="SvgjsG1003"><rect x="0" width="375" y="0" height="374.999991" style="fill:#ffffff;fill-opacity:1;stroke:none;"></rect><rect x="0" width="375" y="0" height="374.999991" style="fill:#ffffff;fill-opacity:1;stroke:none;"></rect><g clip-rule="nonzero" clip-path="url(#0383cf78e7)"><path style=" stroke:none;fill-rule:evenodd;fill:#000000;fill-opacity:1;" d="M 140.414062 196.980469 L 140.414062 211.035156 C 140.414062 215.671875 142.25 220.117188 145.519531 223.394531 C 148.785156 226.671875 153.222656 228.511719 157.84375 228.511719 L 158 228.511719 C 162.625 228.511719 167.058594 226.671875 170.328125 223.394531 C 173.59375 220.117188 175.433594 215.671875 175.433594 211.035156 L 175.433594 182.851562 L 220.105469 138.058594 L 262.488281 138.058594 L 212.625 188.054688 L 261.867188 258.5625 L 225.28125 258.5625 L 202.828125 226.414062 C 200.503906 233.203125 196.65625 239.445312 191.496094 244.617188 C 182.589844 253.546875 170.515625 258.5625 157.921875 258.5625 C 136.554688 258.5625 118.484375 244.410156 112.523438 224.941406 Z M 140.414062 196.980469 "></path></g><g clip-rule="nonzero" clip-path="url(#f54b354e0d)"><path style=" stroke:none;fill-rule:evenodd;fill:#000000;fill-opacity:1;" d="M 205.402344 131.820312 L 175.433594 161.867188 L 175.433594 116.8125 L 205.402344 116.8125 Z M 205.402344 131.820312 "></path></g></g></svg><style>@media (prefers-color-scheme: light) { :root { filter: none; } }
@media (prefers-color-scheme: dark) { :root { filter: none; } }
</style></svg>